# xmcd
# 
# Track frame offsets:
#     150
#     23597
#     48902
#     65507
#     87965
#     105227
#     126800
#     143257
#     166432
#     188102
#     207727
# 
# Disc length: 3072
# 
# Revision: 44
# Processed by: cddbd v1.5.2PL0 Copyright (c) Steve Scherf et al.
# Submitted via: fre:ac v1.0.31
# 
DISCID=8c0bfe0b
DTITLE=The Wallflowers - The Wallflowers - Bringing Down The Horse
DYEAR=1996
DGENRE=Alternative
TTITLE0=One Headlight
TTITLE1=6th Avenue Heartache
TTITLE2=Bleeders
TTITLE3=Three Marlenas
TTITLE4=The Difference
TTITLE5=Invisible City
TTITLE6=Laughting Out Loud
TTITLE7=Josephine
TTITLE8=God Don't Make Lonely Girls
TTITLE9=Angel On My Bike
TTITLE10=I Wish I Felt Nothing
EXTD=
EXTT0=
EXTT1=
EXTT2=
EXTT3=
EXTT4=
EXTT5=
EXTT6=
EXTT7=
EXTT8=
EXTT9=
EXTT10=
PLAYORDER=
